<svg xmlns="http://www.w3.org/2000/svg" viewBox="0 0 500 500">
    <path
      d="M 699.57 141.72 C 561.54 141.72 449.53 253.65 449.53 391.68 S 561.55 641.72 699.57 641.72 C 837.6 641.72 949.53 529.7 949.53 391.68 C 949.53 253.65 837.6 141.72 699.57 141.72 Z M 672.777 177.243 C 675.241 177.203 677.782 177.837 680.037 179.317 C 684.549 182.277 687.297 188.248 687.297 196.517 V 263.933 H 704.929 V 196.517 C 704.929 188.249 707.679 182.278 712.189 179.317 C 716.701 176.357 722.238 176.851 726.365 179.144 C 730.491 181.438 733.677 185.865 733.365 191.244 C 733.054 196.624 729.284 201.864 722.044 206.024 C 720.162 207.247 717.29 206.584 716.166 204.642 C 715.043 202.699 715.896 199.872 717.895 198.851 C 723.691 195.521 725.052 192.581 725.155 190.813 C 725.258 189.045 724.142 187.34 722.303 186.318 S 718.363 185.273 716.771 186.318 S 713.228 189.971 713.228 196.518 V 263.933 H 732.328 V 287.615 H 749.442 V 309.309 L 761.024 314.149 L 848.492 201.269 A 241.52 241.52 90 0 1 861.024 211.814 L 763.444 326.764 C 755.633 321.622 736.544 313.39 715.253 311.812 L 714.215 294.612 H 680.766 V 310.862 C 645.333 319.202 631.06 349.537 627.056 380.524 H 607.696 V 411.639 H 628.7 C 634.86 436.454 656.583 456.417 687.646 458.052 C 744.413 461.04 754.202 375.144 713.489 379.055 C 692.999 381.024 701.002 398.215 700.957 408.528 C 700.929 415.114 691.447 423.234 682.115 422.789 C 669.073 422.167 659.857 412.725 659.73 390.983 C 659.53 356.801 688.414 343.421 708.736 343.187 C 738.907 342.838 761.56 358.875 767.114 384.34 L 788.635 385.032 L 787.944 415.369 H 769.1 C 765.924 444.146 748.406 481.667 715.081 491.156 L 714.735 507.836 L 682.496 507.491 L 682.842 490.118 C 664.422 489.828 634.932 474.838 634.932 474.838 L 546.427 578.818 A 242.217 242.217 90 0 1 519.634 553.235 L 623.734 467.732 L 617.257 461.618 H 582.9 V 435.775 H 566.824 V 419.353 H 501.655 C 495.108 419.353 492.501 421.305 491.456 422.897 C 490.411 424.49 490.434 426.589 491.456 428.429 C 492.478 430.268 494.182 431.383 495.95 431.281 C 497.718 431.178 500.658 429.816 503.988 424.021 C 505.01 422.022 507.836 421.168 509.779 422.292 C 511.722 423.415 512.385 426.287 511.162 428.169 C 507.002 435.409 501.762 439.179 496.382 439.491 C 491.002 439.803 486.575 436.617 484.282 432.491 C 481.989 428.364 481.494 422.827 484.455 418.315 C 487.415 413.805 493.385 411.055 501.655 411.055 H 566.824 V 393.423 H 501.654 C 493.386 393.423 487.416 390.674 484.454 386.163 C 481.494 381.652 481.989 376.115 484.282 371.988 C 486.575 367.861 491.002 364.675 496.382 364.988 C 501.762 365.299 507.002 369.068 511.162 376.309 C 512.385 378.191 511.722 381.063 509.779 382.186 C 507.836 383.31 505.009 382.456 503.989 380.458 C 500.659 374.662 497.719 373.3 495.95 373.198 C 494.182 373.095 492.478 374.211 491.456 376.05 S 490.411 379.989 491.456 381.581 S 495.108 385.125 501.655 385.125 H 566.824 V 365.851 H 586.357 V 344.935 H 607.36 L 609.434 335.86 L 509.174 242.688 C 518.69 230.551 529.351 219.435 540.98 209.326 L 630.263 317.446 L 634.93 314.939 L 634.585 283.479 H 660.428 V 263.945 H 679.011 V 196.53 C 679.011 189.984 677.06 187.376 675.467 186.331 C 673.875 185.286 671.775 185.309 669.936 186.331 S 666.981 189.058 667.083 190.826 C 667.186 192.594 668.548 195.533 674.343 198.864 C 676.343 199.884 677.196 202.712 676.073 204.654 C 674.949 206.597 672.077 207.26 670.195 206.037 C 662.955 201.877 659.185 196.637 658.873 191.257 C 658.561 185.878 661.747 181.45 665.873 179.157 C 667.937 178.011 670.324 177.296 672.788 177.256 Z M 888.157 240.51 C 921.351 281.892 941.225 334.45 941.225 391.68 C 941.225 451.018 919.879 505.36 884.44 547.43 L 788.934 465.753 L 791.008 456.678 H 812.011 V 435.762 H 831.544 V 416.488 H 896.714 C 903.26 416.488 905.867 418.439 906.912 420.031 C 907.957 421.624 907.934 423.724 906.912 425.563 S 904.186 428.518 902.418 428.415 C 900.65 428.313 897.71 426.951 894.38 421.155 C 893.359 419.157 890.532 418.303 888.59 419.426 C 886.646 420.55 885.983 423.422 887.206 425.304 C 891.366 432.544 896.606 436.314 901.986 436.626 C 907.366 436.938 911.793 433.751 914.086 429.625 C 916.38 425.498 916.874 419.962 913.913 415.45 C 910.953 410.938 904.983 408.19 896.713 408.19 H 831.544 V 390.558 H 896.714 C 904.982 390.558 910.952 387.808 913.914 383.298 C 916.874 378.786 916.379 373.249 914.086 369.122 C 911.793 364.996 907.366 361.81 901.986 362.122 C 896.606 362.433 891.367 366.203 887.206 373.443 C 885.983 375.325 886.646 378.197 888.589 379.321 C 890.532 380.444 893.359 379.591 894.379 377.592 C 897.71 371.796 900.65 370.435 902.418 370.332 C 904.186 370.229 905.89 371.345 906.912 373.184 S 907.957 377.124 906.912 378.716 S 903.26 382.259 896.713 382.259 H 831.544 V 365.837 H 815.468 V 339.994 H 781.286 L 774.984 335.103 L 888.154 240.513 Z M 768.107 484.16 L 849.697 581.221 C 808.482 613.926 756.301 633.425 699.567 633.425 C 647.833 633.425 599.91 617.169 560.587 589.518 L 637.337 487.448 L 648.919 492.288 V 513.982 H 666.032 V 537.664 H 685.133 V 605.08 C 685.133 611.627 683.182 614.234 681.589 615.28 C 679.997 616.324 677.897 616.301 676.058 615.28 S 673.103 612.553 673.206 610.785 C 673.308 609.017 674.67 606.077 680.466 602.747 C 682.464 601.725 683.318 598.899 682.194 596.956 C 681.071 595.013 678.199 594.35 676.317 595.573 C 669.077 599.733 665.307 604.973 664.995 610.353 C 664.683 615.733 667.87 620.16 671.996 622.453 C 676.123 624.746 681.659 625.241 686.171 622.28 C 690.682 619.32 693.431 613.35 693.431 605.08 V 537.664 H 711.063 V 605.08 C 711.063 613.349 713.812 619.32 718.323 622.28 C 722.835 625.24 728.371 624.746 732.498 622.453 C 736.625 620.16 739.811 615.733 739.499 610.353 C 739.187 604.973 735.418 599.734 728.177 595.573 C 726.295 594.35 723.424 595.013 722.3 596.956 C 721.177 598.899 722.03 601.726 724.029 602.746 C 729.825 606.076 731.186 609.016 731.289 610.785 C 731.391 612.553 730.276 614.257 728.437 615.279 S 724.497 616.324 722.905 615.279 S 719.361 611.627 719.361 605.08 V 537.664 H 737.944 V 518.131 H 763.787 L 763.442 486.671 L 768.109 484.164 Z"
      style="fill: rgba(71, 115, 182, 0.5)"
      transform="rotate(180 474.752 320.86)"
    />
  </svg>