<svg xmlns="http://www.w3.org/2000/svg" viewBox="0 0 500 500">
    <path
      d="M699.57 141.72c-138.03 0-250.04 111.93-250.04 249.96s112.02 250.04 250.04 250.04c138.03 0 249.96-112.02 249.96-250.04 0-138.03-111.93-249.96-249.96-249.96zm-26.793 35.523c2.464-.04 5.005.594 7.26 2.074 4.512 2.96 7.26 8.931 7.26 17.2v67.416h17.632v-67.416c0-8.268 2.75-14.239 7.26-17.2 4.512-2.96 10.049-2.466 14.176-.173 4.126 2.294 7.312 6.721 7 12.1-.311 5.38-4.081 10.62-11.321 14.78-1.882 1.223-4.754.56-5.878-1.382-1.123-1.943-.27-4.77 1.729-5.791 5.796-3.33 7.157-6.27 7.26-8.038.103-1.768-1.013-3.473-2.852-4.495s-3.94-1.045-5.532 0-3.543 3.653-3.543 10.2v67.415h19.1v23.682h17.114v21.694l11.582 4.84 87.468-112.88a241.52 241.52 0 0 1 12.532 10.545l-97.58 114.95c-7.811-5.142-26.9-13.374-48.191-14.952l-1.038-17.2h-33.449v16.25c-35.433 8.34-49.706 38.675-53.71 69.662h-19.36v31.115H628.7c6.16 24.815 27.883 44.778 58.946 46.413 56.767 2.988 66.556-82.908 25.843-78.997-20.49 1.969-12.487 19.16-12.532 29.473-.028 6.586-9.51 14.706-18.842 14.261-13.042-.622-22.258-10.064-22.385-31.806-.2-34.182 28.684-47.562 49.006-47.796 30.171-.349 52.824 15.688 58.378 41.153l21.521.692-.691 30.337H769.1c-3.176 28.777-20.694 66.298-54.019 75.787l-.346 16.68-32.239-.345.346-17.373c-18.42-.29-47.91-15.28-47.91-15.28l-88.505 103.98a242.217 242.217 0 0 1-26.793-25.583l104.1-85.503-6.477-6.114h-34.357v-25.843h-16.076v-16.422h-65.169c-6.547 0-9.154 1.952-10.199 3.544-1.045 1.593-1.022 3.692 0 5.532 1.022 1.839 2.726 2.954 4.494 2.852 1.768-.103 4.708-1.465 8.038-7.26 1.022-1.999 3.848-2.853 5.791-1.729 1.943 1.123 2.606 3.995 1.383 5.877-4.16 7.24-9.4 11.01-14.78 11.322-5.38.312-9.807-2.874-12.1-7-2.293-4.127-2.788-9.664.173-14.176 2.96-4.51 8.93-7.26 17.2-7.26h65.169v-17.632h-65.17c-8.268 0-14.238-2.749-17.2-7.26-2.96-4.511-2.465-10.048-.172-14.175 2.293-4.127 6.72-7.313 12.1-7 5.38.311 10.62 4.08 14.78 11.321 1.223 1.882.56 4.754-1.383 5.877-1.943 1.124-4.77.27-5.79-1.728-3.33-5.796-6.27-7.158-8.039-7.26-1.768-.103-3.472 1.013-4.494 2.852s-1.045 3.939 0 5.531 3.652 3.544 10.199 3.544h65.169v-19.274h19.533v-20.916h21.003l2.074-9.075-100.26-93.172c9.516-12.137 20.177-23.253 31.806-33.362l89.283 108.12 4.667-2.507-.345-31.46h25.843v-19.534h18.583V196.53c0-6.546-1.951-9.154-3.544-10.199-1.592-1.045-3.692-1.022-5.531 0s-2.955 2.727-2.853 4.495c.103 1.768 1.465 4.707 7.26 8.038 2 1.02 2.853 3.848 1.73 5.79-1.124 1.943-3.996 2.606-5.878 1.383-7.24-4.16-11.01-9.4-11.322-14.78-.312-5.379 2.874-9.807 7-12.1 2.064-1.146 4.451-1.861 6.915-1.901zm215.38 63.267c33.194 41.382 53.068 93.94 53.068 151.17 0 59.338-21.346 113.68-56.785 155.75l-95.506-81.677 2.074-9.075h21.003v-20.916h19.533v-19.274h65.17c6.546 0 9.153 1.951 10.198 3.543 1.045 1.593 1.022 3.693 0 5.532s-2.726 2.955-4.494 2.852c-1.768-.102-4.708-1.464-8.038-7.26-1.021-1.998-3.848-2.852-5.79-1.729-1.944 1.124-2.607 3.996-1.384 5.878 4.16 7.24 9.4 11.01 14.78 11.322 5.38.312 9.807-2.875 12.1-7.001 2.294-4.127 2.788-9.663-.173-14.175-2.96-4.512-8.93-7.26-17.2-7.26h-65.169v-17.632h65.17c8.268 0 14.238-2.75 17.2-7.26 2.96-4.512 2.465-10.049.172-14.176-2.293-4.126-6.72-7.312-12.1-7-5.38.311-10.619 4.081-14.78 11.321-1.223 1.882-.56 4.754 1.383 5.878 1.943 1.123 4.77.27 5.79-1.729 3.331-5.796 6.271-7.157 8.039-7.26 1.768-.103 3.472 1.013 4.494 2.852s1.045 3.94 0 5.532-3.652 3.543-10.199 3.543h-65.169v-16.422h-16.076v-25.843h-34.182l-6.302-4.891 113.17-94.59zm-120.05 243.65 81.59 97.061c-41.215 32.705-93.396 52.204-150.13 52.204-51.734 0-99.657-16.256-138.98-43.907l76.75-102.07 11.582 4.84v21.694h17.113v23.682h19.101v67.416c0 6.547-1.951 9.154-3.544 10.2-1.592 1.044-3.692 1.021-5.531 0s-2.955-2.727-2.852-4.495c.102-1.768 1.464-4.708 7.26-8.038 1.998-1.022 2.852-3.848 1.728-5.791-1.123-1.943-3.995-2.606-5.877-1.383-7.24 4.16-11.01 9.4-11.322 14.78-.312 5.38 2.875 9.807 7.001 12.1 4.127 2.293 9.663 2.788 14.175-.173 4.511-2.96 7.26-8.93 7.26-17.2v-67.416h17.632v67.416c0 8.269 2.749 14.24 7.26 17.2 4.512 2.96 10.048 2.466 14.175.173 4.127-2.293 7.313-6.72 7.001-12.1-.312-5.38-4.081-10.619-11.322-14.78-1.882-1.223-4.753-.56-5.877 1.383-1.123 1.943-.27 4.77 1.729 5.79 5.796 3.33 7.157 6.27 7.26 8.039.102 1.768-1.013 3.472-2.852 4.494s-3.94 1.045-5.532 0-3.544-3.652-3.544-10.199v-67.416h18.583v-19.533h25.843l-.345-31.46 4.667-2.507z"
      style="fill: rgba(71, 115, 182, 0.5)"
      transform="rotate(180 474.752 320.86)"
    />
  </svg>